# xmcd
#
# Track frame offsets:
#	150
#	11073
#	21158
#	32697
#	45102
#	59333
#	70321
#	80685
#	92087
#	104971
#	114701
#	135827
#	155551
#	166091
#	177597
#	197096
#
# Disc length: 2760 seconds
#
# Revision: 1
# Processed by: cddbd v1.5.2PL0 Copyright (c) Steve Scherf et al.
# Submitted via: audiograbber 1.83.01
#
DISCID=d50ac610
DTITLE=Various Artist - Classic Country 60 Country and Western Hits CD2
DYEAR=1900
DGENRE=Country
TTITLE0=Cathy압 Clown - The Everly Brothers
TTITLE1=I앐 Sorry - Brenda Lee
TTITLE2=Help me make it trough the Night - Sammi Smith
TTITLE3=Behind closed Doors - Charlie Rich
TTITLE4=You았e never been this far before - Conway Twitty
TTITLE5=It wasn앖 God who made honky tonk angels - Dolly Parton
TTITLE6=Six Days on the road - Dave Dudley
TTITLE7=Sea of Heartbreak - Don Gibson
TTITLE8=It압 four in the morning - Faron Young
TTITLE9=I can help - Billy Swan
TTITLE10=The bluest eyes of Texas - Sammy압 Saloon
TTITLE11=El Paso - Marty Robbins
TTITLE12=San Antonio Rose - Floyd Cramer
TTITLE13=Oh Lonesome Me - Don Gibson
TTITLE14=Delta Dawn - Tanya Tucker
TTITLE15=It압 Only Make Believe - Conway Twitty
EXTD=
EXTT0=
EXTT1=
EXTT2=
EXTT3=
EXTT4=
EXTT5=
EXTT6=
EXTT7=
EXTT8=
EXTT9=
EXTT10=
EXTT11=
EXTT12=
EXTT13=
EXTT14=
EXTT15=
PLAYORDER=
